<?xml version="1.0" standalone="no"?>
<!DOCTYPE svg PUBLIC "-//W3C//DTD SVG 20010904//EN"
 "http://www.w3.org/TR/2001/REC-SVG-20010904/DTD/svg10.dtd">
<svg version="1.0" xmlns="http://www.w3.org/2000/svg"
 width="2000.000000pt" height="2000.000000pt" viewBox="0 0 2000.000000 2000.000000"
 preserveAspectRatio="xMidYMid meet">
<metadata>
Created by potrace 1.14, written by Peter Selinger 2001-2017
</metadata>
<g transform="translate(0.000000,2000.000000) scale(0.100000,-0.100000)"
fill="#000000" stroke="none">
<path d="M9628 19996 c-1 -2 -61 -6 -133 -10 -149 -7 -239 -13 -310 -21 -27
-3 -81 -7 -120 -10 -38 -3 -88 -7 -110 -10 -22 -2 -65 -7 -95 -10 -76 -8 -114
-13 -195 -24 -38 -6 -92 -13 -120 -16 -47 -6 -65 -9 -125 -19 -14 -3 -70 -12
-125 -21 -126 -20 -125 -20 -215 -39 -41 -8 -88 -18 -105 -21 -16 -3 -39 -8
-50 -10 -11 -2 -38 -8 -60 -14 -22 -5 -56 -13 -75 -16 -48 -8 -289 -69 -435
-110 -485 -135 -964 -303 -1340 -470 -33 -15 -80 -36 -105 -47 -464 -206
-1025 -517 -1463 -811 -262 -177 -682 -489 -837 -623 -14 -12 -63 -55 -110
-95 -296 -252 -732 -678 -947 -926 -10 -11 -47 -53 -83 -93 -119 -134 -352
-423 -497 -617 -120 -161 -378 -539 -474 -695 -62 -99 -169 -279 -169 -283 0
-2 -19 -36 -43 -77 -160 -271 -406 -778 -552 -1138 -174 -429 -341 -944 -450
-1390 -15 -60 -75 -332 -80 -360 -3 -19 -17 -89 -30 -155 -13 -66 -26 -138
-30 -160 -3 -23 -7 -50 -9 -62 -6 -31 -17 -94 -21 -126 -9 -64 -17 -115 -25
-172 -5 -33 -12 -88 -15 -122 -3 -34 -8 -71 -10 -82 -2 -11 -6 -48 -10 -83
-12 -132 -15 -165 -20 -228 -3 -36 -7 -90 -10 -120 -27 -313 -27 -1127 0
-1425 2 -22 6 -71 9 -110 15 -168 27 -294 31 -315 1 -8 6 -42 9 -75 3 -33 9
-78 13 -100 3 -22 7 -51 8 -65 1 -14 6 -44 10 -68 8 -47 10 -64 19 -137 4 -27
9 -57 12 -66 2 -9 7 -34 9 -55 3 -22 12 -70 20 -109 8 -38 17 -86 20 -105 6
-38 40 -201 55 -265 6 -22 26 -107 46 -190 66 -277 161 -605 244 -845 162
-469 310 -821 535 -1271 62 -124 133 -262 158 -305 24 -43 55 -97 67 -119 18
-33 140 -238 224 -378 72 -119 340 -511 461 -673 120 -160 311 -404 334 -424
3 -3 24 -27 46 -55 21 -27 42 -52 45 -55 3 -3 34 -39 70 -80 36 -41 70 -80 75
-86 257 -284 617 -639 875 -864 52 -46 109 -95 126 -111 72 -63 398 -318 552
-431 154 -113 522 -362 638 -433 101 -60 296 -175 337 -198 722 -404 1372
-678 2127 -898 172 -51 492 -135 581 -153 462 -95 418 -86 569 -111 52 -8 106
-17 120 -19 30 -5 101 -15 155 -21 22 -3 51 -7 65 -10 14 -2 52 -7 85 -10 33
-4 71 -8 85 -10 14 -2 61 -7 105 -11 44 -3 88 -8 97 -9 9 -2 56 -6 105 -10 48
-3 108 -8 133 -10 328 -27 1047 -27 1400 0 155 12 369 31 445 40 22 3 60 7 85
10 25 3 59 7 75 10 17 3 46 7 65 9 104 13 146 19 255 37 207 34 348 61 544
105 86 19 164 37 173 39 9 2 79 20 155 40 76 20 145 38 153 41 237 61 909 285
1047 349 17 8 34 15 37 15 3 0 25 9 49 19 23 11 83 36 132 57 50 20 128 54
173 76 46 21 86 38 89 38 11 0 489 243 638 325 300 164 829 496 994 624 20 16
99 75 176 132 205 151 466 362 629 509 95 85 166 150 240 220 127 120 424 420
511 515 147 163 166 183 230 260 28 33 58 69 67 80 274 326 545 696 790 1080
102 160 268 439 268 450 0 4 8 19 19 33 51 73 307 585 401 802 18 41 43 98 55
125 147 325 349 909 464 1340 85 321 178 752 206 955 3 19 7 46 10 60 3 14 7
41 10 60 4 33 22 157 30 210 2 14 7 52 10 85 4 33 9 74 11 90 2 17 6 57 9 90
3 33 8 78 11 100 2 22 7 81 10 130 3 50 7 101 10 115 18 114 26 955 11 1210
-15 252 -17 286 -32 440 -11 104 -26 245 -30 275 -2 17 -7 53 -10 80 -4 28 -8
61 -10 75 -2 14 -7 48 -10 75 -4 28 -15 100 -25 160 -10 61 -21 124 -23 142
-7 47 -61 312 -94 458 -31 138 -113 455 -148 571 -20 66 -42 142 -50 169 -17
62 -146 441 -175 515 -12 30 -25 66 -29 80 -11 34 -106 269 -143 355 -52 119
-69 159 -88 200 -10 22 -28 63 -40 90 -32 71 -253 513 -279 555 -11 19 -24 42
-28 50 -16 37 -175 309 -262 450 -197 319 -470 708 -685 975 -45 55 -88 108
-96 119 -38 47 -269 316 -310 360 -133 145 -179 193 -331 345 -228 228 -407
396 -544 512 -22 19 -42 36 -45 39 -21 24 -366 299 -490 391 -282 210 -657
466 -799 545 -18 11 -41 24 -50 29 -48 30 -243 145 -246 145 -2 0 -26 13 -52
28 -366 215 -1112 555 -1493 678 -25 8 -54 19 -65 24 -53 23 -381 127 -600
189 -131 37 -430 114 -485 125 -14 2 -59 12 -100 21 -41 9 -86 19 -99 21 -14
3 -79 16 -145 29 -67 13 -166 31 -221 39 -55 9 -109 18 -120 20 -11 2 -49 7
-85 12 -36 4 -67 8 -70 9 -6 1 -110 15 -155 20 -92 12 -154 18 -280 29 -38 4
-86 9 -105 11 -19 2 -84 7 -145 11 -60 3 -128 8 -150 10 -47 5 -912 14 -917
10z"/>
</g>
</svg>
